<svg width="531" height="207" viewBox="0 0 531 207" fill="none" xmlns="http://www.w3.org/2000/svg">
<path d="M121.777 202.987L-41.6191 203.528V195.279C-15.7912 177.699 12.2118 157.955 42.1179 132.125C74.7427 103.591 81.1317 86.1457 81.1317 68.5654C81.1317 41.9245 61.5568 22.7213 33.9616 22.8566C7.5899 22.8566 -9.81001 39.0845 -20.0053 48.6861L-26.5304 43.1415C-13.2086 27.9954 10.7164 1.21922 51.3615 1.08398C86.4332 1.08398 111.853 23.8032 111.989 51.3908C111.989 92.2312 80.8596 117.655 0.656967 175.264L94.8614 174.994C107.775 174.994 114.3 174.994 130.205 133.613H138.089L121.641 202.987H121.777Z" fill="#FFDA49"/>
<path d="M315.216 202.445L151.82 202.986V194.737C177.512 177.157 205.651 157.413 235.557 131.583C268.182 103.049 274.571 85.6037 274.571 68.0234C274.571 41.3824 254.996 22.1793 227.401 22.3146C201.029 22.3146 183.629 38.5426 173.434 48.1441L166.909 42.5996C180.231 27.4534 204.156 0.677225 244.801 0.541992C279.873 0.541992 305.293 23.2612 305.429 50.8487C305.429 91.6892 274.299 117.113 194.096 174.722L288.3 174.452C301.214 174.452 307.739 174.452 323.644 133.071H331.529L315.08 202.445H315.216Z" fill="#FFDA49"/>
<path d="M343.49 99.9378C343.49 60.4496 369.454 0.270826 437.287 0.00035972C488.127 -0.134874 530.675 37.8657 530.811 103.86C530.947 159.44 496.555 206.366 437.015 206.502C392.292 206.637 343.626 176.074 343.49 99.8026V99.9378ZM503.216 103.048C503.216 86.0087 500.769 61.6667 488.263 43.0046C479.427 30.1574 461.347 16.9045 436.063 17.0397C394.059 17.175 371.085 54.4994 371.221 100.749C371.357 162.686 400.176 189.733 436.607 189.597C477.252 189.597 503.488 158.223 503.216 103.048Z" fill="#FFDA49"/>
</svg>
