<svg width="21" height="18" viewBox="0 0 21 18" fill="none" xmlns="http://www.w3.org/2000/svg">
<path d="M17.8472 12.7985H6.7569L4.40039 2.7959H19.8037L17.8472 12.7985Z" stroke="#FFCC00" stroke-width="2" stroke-linecap="round" stroke-linejoin="round"/>
<path d="M9.20169 17.0001C9.53313 17.0001 9.80182 16.7314 9.80182 16.4C9.80182 16.0685 9.53313 15.7998 9.20169 15.7998C8.87025 15.7998 8.60156 16.0685 8.60156 16.4C8.60156 16.7314 8.87025 17.0001 9.20169 17.0001Z" stroke="#FFCC00" stroke-width="2" stroke-linecap="round" stroke-linejoin="round"/>
<path d="M15.2036 17.0001C15.5351 17.0001 15.8038 16.7314 15.8038 16.4C15.8038 16.0685 15.5351 15.7998 15.2036 15.7998C14.8722 15.7998 14.6035 16.0685 14.6035 16.4C14.6035 16.7314 14.8722 17.0001 15.2036 17.0001Z" stroke="#FFCC00" stroke-width="2" stroke-linecap="round" stroke-linejoin="round"/>
<path d="M18.6031 7.79785H13.002" stroke="#FFCC00" stroke-width="2" stroke-linecap="round" stroke-linejoin="round"/>
<path d="M4.42474 2.86848L3.39652 1.84421C2.90102 1.3474 2.2371 1.0547 1.53612 1.02401L1 1" stroke="#FFCC00" stroke-width="2" stroke-linecap="round" stroke-linejoin="round"/>
</svg>
