<svg xmlns="http://www.w3.org/2000/svg" fill="none" class="header-logo-svg" viewBox="870 -2 272 70"><path fill="#454545" d="M933.05 65.98H903.8v-.45q1.14-.18 2.25-.6a4 4 0 0 0 1.76-1.13q.23-.27.39-.79t.25-1.2q.08-.68.15-1.43t.07-1.47q0-.63.02-1.72l.08-5.03v-13q0-.83-.07-1.53a8 8 0 0 0-.2-1.25q-.15-.54-.42-.86a4 4 0 0 0-1.71-1.18 9 9 0 0 0-2.26-.54v-.46h14.53v.46q-.6.08-1.41.27-.83.18-1.55.59t-1.25 1.16q-.52.74-.57 1.98l-.07 2.9-.04 2.58q-.03 1.27-.03 2.64v8.25q0 1.19.03 2.43l.02 2.78q.04 1.47.12 2.77.07 1.31.48 1.95.18.22.72.45t1.33.39a20 20 0 0 0 3.5.39q.36 0 1.16-.03a37 37 0 0 0 3.71-.3q1-.13 1.78-.36 1.83-.5 3.03-1.31t2.07-1.89 1.46-2.31q.6-1.25 1.14-2.6l.46.13-1.7 9.34zM935.97 65.98v-.32a6 6 0 0 0 1.48-.4q.68-.3 1.16-.83.16-.18.25-.54.08-.35.12-.83t.06-1l.02-1.03q0-.45.02-1.2l.03-1.68.02-1.86v-9.16a11 11 0 0 0-.2-1.95 1.3 1.3 0 0 0-.28-.62q-.45-.54-1.1-.78a6 6 0 0 0-1.48-.33v-.32h9.53v.32q-.66.1-1.44.35-.75.26-1.18 1.01-.29.55-.3 1.37l-.05 1.55q0 .8-.02 1.58l-.02 1.57V61.5q0 .92.04 1.78.03.85.28 1.2.4.55 1.22.83t1.5.34v.32zM968.7 61.8a6 6 0 0 1-.93 1.62 6.4 6.4 0 0 1-2.68 1.94q-1.22.45-2.72.54t-2.9.1h-11v-.32a7 7 0 0 0 1.52-.41q.72-.29 1.16-.8.17-.18.26-.55a8 8 0 0 0 .28-1.84l.03-1.03q0-.45.02-1.21l.03-1.67.02-1.86v-4.92q0-.7-.02-1.43l-.01-1.68a18 18 0 0 0-.14-2.29 8 8 0 0 0-.2-.97q-.1-.44-.3-.62a3 3 0 0 0-.96-.68 6 6 0 0 0-1.34-.27v-.32h10.75q1.21 0 2.32.14t2.11.52a6.3 6.3 0 0 1 2.68 1.85q1.05 1.23 1.05 3.14 0 2.1-1.35 3.38a7 7 0 0 1-3.53 1.73V54q1.16.12 2.27.56 1.1.44 2 1.16a6 6 0 0 1 1.4 1.73q.53 1 .53 2.27 0 1.15-.35 2.07m-5.45-15.83a4.8 4.8 0 0 0-2.02-1.78 9 9 0 0 0-3.67-.64q-.67 0-1.21.07-.55.07-.83.16l-.07.34-.05.4-.03.58q0 .35-.05.92-.04 1.11-.05 2.45l-.02 2.54v3.04h1.79q.73 0 1.18-.03 2.87-.15 4.35-1.62 1.49-1.46 1.48-3.62 0-1.58-.8-2.82M965 58.35a5.6 5.6 0 0 0-2.06-2.67 6.4 6.4 0 0 0-2.97-1.08q-.69-.08-1.62-.09h-3.09v3.97q0 .9.02 1.64l.01 1.28q.04 1.2.12 1.98t.46 1.29q.3.35.86.58.57.24 1.67.24.92 0 2-.12 1.1-.12 2.1-.67a5.3 5.3 0 0 0 2.08-1.86q.74-1.16.74-2.77 0-.92-.3-1.73zM989.86 65.98a13 13 0 0 1-.7-.76q-.16-.2-.4-.55-.23-.37-.75-1.1l-1.07-1.6a54 54 0 0 0-1.97-2.83q-.55-.72-1.33-1.6-.63-.74-1.39-1.37-.74-.64-1.58-.8-.6-.11-.92-.12l-.74-.03v3.59q0 1.52.04 2.57l.06 1.74q.04.73.35 1.2.25.42 1 .85.72.43 2.03.5v.31h-10.2v-.32a9 9 0 0 0 1.53-.38q.73-.25 1.15-.76.16-.19.25-.57.1-.37.14-.86.05-.46.09-1l.03-1.05q0-.45.02-1.21l.03-1.67.02-1.86v-8.03q0-.57-.02-1.16 0-.6-.06-1.11a6 6 0 0 0-.16-.96q-.12-.42-.3-.61a2.5 2.5 0 0 0-1.08-.69q-.6-.16-1.44-.3v-.32h1.3q1.08 0 2.46-.02l2.75-.02h2.23q2.13 0 3.8.14 1.65.12 3.02.85a6 6 0 0 1 2.27 1.99q.86 1.25.86 3.15 0 1.19-.43 2.11a6 6 0 0 1-1.15 1.65q-.72.72-1.67 1.22-.95.51-2.01.86v.1q.53.29 1.05.82.51.54.99 1.2a325 325 0 0 0 3.54 5.09 10 10 0 0 0 2.3 2.4q1.11.78 2.61 1v.31h-6.54zm-3.16-19.77a5.5 5.5 0 0 0-2.32-1.96 7 7 0 0 0-1.61-.52 12.93 12.93 0 0 0-2.85-.12q-.42.03-.64.07-.03.2-.07.33l-.05.37-.03.61-.05 1.13q-.04 1.11-.05 2.51l-.02 2.7v3.49q1.31 0 2.44-.1a10 10 0 0 0 2.18-.47 6 6 0 0 0 1.76-.86 5.1 5.1 0 0 0 2.1-4.35q0-1.58-.79-2.82M1016.11 65.98h-19.52v-.32a6 6 0 0 0 1.48-.4q.69-.3 1.14-.8.16-.18.25-.56a8 8 0 0 0 .28-1.84q.04-.53.04-1.03l.01-1.2.04-1.68.01-1.86v-8.03l-.01-1.18a16 16 0 0 0-.07-1.14 6 6 0 0 0-.16-.97q-.1-.44-.3-.62a2 2 0 0 0-1.02-.65q-.54-.14-1.4-.27v-.32h17.6l2.17 5.23-.32.16q-2.58-3.2-4.84-4.31a8 8 0 0 0-2.01-.45 29 29 0 0 0-4.96-.14q-.72.05-1.04.12-.06.51-.11 2.1t-.05 3.68v2.03l.01 1.35.02.8v.35h.64l1.1-.03 1.24-.09q.62-.05 1.03-.14a6 6 0 0 0 1.6-.6q.63-.38 1.03-.92.4-.53.64-1.25t.43-1.6h.38v10h-.38q-.26-1.02-.79-2.1a6 6 0 0 0-1.1-1.62q-.51-.45-1.22-.73a6 6 0 0 0-1.68-.35q-.48-.04-.79-.05l-.64-.02h-1.46q-.07.45-.07 1.3v3.81q0 .5.02.97l.01.78q.04 1.02.12 1.92t.36 1.35q.29.44 1.37.63 1.09.2 2.36.2.55 0 1.39-.04a20 20 0 0 0 1.77-.16 6.7 6.7 0 0 0 3.55-1.52 10 10 0 0 0 1.54-1.64 22 22 0 0 0 1.55-2.33l.35.1-1.6 6.06zM1036.84 65.98a7 7 0 0 1-1.1-1.31q-.25-.37-.76-1.1-.6-.88-1.06-1.6a46 46 0 0 0-1.98-2.83q-.55-.72-1.32-1.6-.64-.74-1.39-1.37t-1.58-.8a5 5 0 0 0-.93-.12q-.29 0-.73-.03v3.59a65 65 0 0 0 .09 4.31q.04.73.35 1.2.26.42.99.85t2.05.5v.31h-10.21v-.32a9 9 0 0 0 1.53-.38q.73-.25 1.15-.76.16-.19.26-.57t.14-.86l.08-1q.04-.55.03-1.05 0-.45.02-1.21t.03-1.67l.02-1.86v-8.03q0-.57-.02-1.16 0-.6-.06-1.11a8 8 0 0 0-.16-.96q-.1-.42-.31-.61a2.4 2.4 0 0 0-1.06-.69q-.6-.16-1.46-.3v-.32h1.31q1.08 0 2.45-.02l2.75-.02h2.23q2.14 0 3.8.14 1.66.12 3.03.85a6 6 0 0 1 2.26 1.99q.86 1.25.86 3.15 0 1.19-.43 2.11a6 6 0 0 1-1.15 1.65 7 7 0 0 1-1.67 1.22q-.95.51-2.01.86v.1q.55.29 1.05.82.51.54.99 1.2.83 1.23 1.81 2.6.96 1.4 1.73 2.49a10 10 0 0 0 2.3 2.4 6 6 0 0 0 2.62 1v.31zm-3.16-19.77a5.5 5.5 0 0 0-2.34-1.96 7 7 0 0 0-1.61-.52 12.9 12.9 0 0 0-2.85-.12q-.41.03-.64.07l-.06.33q-.05.15-.05.37l-.04.61-.05 1.13-.05 2.51-.01 2.7v3.49q1.3 0 2.44-.1 1.13-.12 2.18-.47 1.02-.32 1.75-.86a5 5 0 0 0 1.89-2.7 6 6 0 0 0 .22-1.65q0-1.58-.79-2.82zM1043.72 65.98v-.32a6 6 0 0 0 1.48-.4 3 3 0 0 0 1.17-.83q.16-.18.24-.54.08-.35.12-.83.05-.48.07-1l.02-1.03.01-1.2.04-1.68.01-1.86v-9.16a9 9 0 0 0-.2-1.95 1.3 1.3 0 0 0-.29-.62 2.5 2.5 0 0 0-1.1-.78 6 6 0 0 0-1.48-.33v-.32h9.54v.32a8 8 0 0 0-1.44.35q-.76.26-1.18 1.01-.28.55-.31 1.37-.01.83-.05 1.55l-.01 1.58-.02 1.57V61.5q0 .92.03 1.78.04.85.29 1.2.38.55 1.22.83.83.28 1.49.34v.32zM1069.14 65.98v-.32a5 5 0 0 0 1.23-.28q.39-.17.7-.45t.31-.73q0-.29-.18-.94t-.49-1.59l-.74-2.08q-.4-1.14-.89-2.38h-8.49l-.92 2.3-.9 2.21a8 8 0 0 0-.67 2.41q0 .4.26.69.26.27.65.44.4.17.86.25l.88.14v.33h-6.79v-.35a4 4 0 0 0 1.42-.44q.6-.35.69-.48.23-.23.74-1.05.5-.82 1.24-2.44.66-1.49 1.49-3.4a540 540 0 0 0 3.44-7.98q.86-2.05 1.63-3.83l-.31-.7a5 5 0 0 0 1.84-1.33 7 7 0 0 0 .95-1.3h.26q.98 2.64 1.89 5l1.7 4.55 1.58 4.23 2.18 5.69.69 1.47a4 4 0 0 0 .87 1.1q.37.34.91.58.55.25 1.28.29v.38h-9.31zm-4.18-19.22q-.18.4-.55 1.3l-.91 2.15q-.55 1.27-1.2 2.87l-1.43 3.47h7.94q-.53-1.42-1.1-2.85l-1.08-2.75-.96-2.4-.72-1.8zM903.01 12.53a8.7 8.7 0 0 1-3.51 4.2 13 13 0 0 1-5.16 1.88 39 39 0 0 1-5.83.45h-2.45v4.27q0 .75.02 1.43.03.65.03 1.43.04 1.45.09 2.5.05 1.04.5 1.71.36.6 1.42 1.18 1.05.6 2.91.68v.45h-14.57v-.45q1.14-.18 2.18-.54a3.5 3.5 0 0 0 1.64-1.09q.22-.27.36-.81.14-.55.2-1.23.08-.68.12-1.45.05-.75.04-1.5 0-.62.03-1.71l.07-5.03V7.43q0-.82-.02-1.65-.03-.84-.1-1.6-.07-.75-.22-1.35a2 2 0 0 0-.43-.88 3.4 3.4 0 0 0-1.76-.97q-1.06-.25-2.3-.43V.1h1.1q.86 0 2.02-.03l2.53-.02q1.36 0 2.71-.03l2.53-.02h2.06q3 0 5.33.3t4.38 1.43a9 9 0 0 1 3.32 3.08 8.4 8.4 0 0 1 1.32 4.72q0 1.68-.54 3.03zm-5.72-7.93a8.6 8.6 0 0 0-3.53-3.09 9 9 0 0 0-2.33-.68 17 17 0 0 0-4.87 0q-.04.27-.11.48t-.12.52l-.1.88-.08 1.61q-.04 1.59-.07 3.85l-.02 4.44v5.8q1.87 0 3.5-.11 1.64-.12 3.06-.61a8.56 8.56 0 0 0 6-8.43q0-2.62-1.34-4.66M918.62 23.81v-.32l.47-.06q.36-.07.77-.23.4-.15.7-.44t.3-.73q0-.29-.17-.94t-.5-1.59a104 104 0 0 0-1.62-4.46h-8.49l-.93 2.3-.89 2.21a8 8 0 0 0-.67 2.41q0 .4.26.68.26.27.65.45.4.17.86.25l.88.14v.32h-6.8v-.34a3.7 3.7 0 0 0 2.12-.92q.23-.22.73-1.05.51-.82 1.25-2.44l1.5-3.4a921 921 0 0 0 5.06-11.8l-.32-.7a5.5 5.5 0 0 0 1.84-1.34 6 6 0 0 0 .95-1.3h.26l1.88 5q.9 2.36 1.7 4.55.83 2.18 1.59 4.23l1.53 4.05q.35.98.65 1.64l.69 1.47a5 5 0 0 0 .88 1.1 3.5 3.5 0 0 0 2.18.87v.38h-9.31zm-4.17-19.23q-.2.42-.56 1.3l-.91 2.16q-.55 1.27-1.2 2.87l-1.42 3.47h7.93q-.54-1.43-1.1-2.85l-1.08-2.75-.96-2.41-.72-1.8zM952 1.88q-.73.45-1.1 1.37-.23.48-.3 1.76l-.23 5.97q-.05 1.85-.05 3.98v2.03q0 1.11.02 2.27l.01 2.3v2.07q0 .13-.08.2a.3.3 0 0 1-.24.09q-.25 0-.57-.32l-4.94-5.71-4.26-4.97-3.97-4.62q-1.95-2.25-4.11-4.66v13.38q0 1.62.08 2.92t.4 1.94q.35.72 1.1 1.1.75.36 2.06.52v.32h-7.85v-.32q.76-.1 1.53-.4.75-.3 1.21-1 .46-.67.57-1.96.13-1.3.2-3.1.06-1.38.1-3.23.03-1.85.03-3.98V5.97q0-.63-.04-1.56a4 4 0 0 0-.44-1.5 3 3 0 0 0-1.86-1.4q-.56-.15-1.07-.21V.98h6.48l15.11 17.57V7.77q0-1.28-.03-2.43a6 6 0 0 0-.29-1.83 3 3 0 0 0-1.13-1.44A6 6 0 0 0 946 1.3V.97h7.9v.32q-1.17.15-1.9.6M956.29 23.81v-.32a6 6 0 0 0 1.48-.41q.68-.28 1.16-.82.15-.18.24-.55.08-.34.13-.82.04-.48.06-1l.02-1.03.01-1.21.04-1.66.01-1.86V4.96a11 11 0 0 0-.19-1.95 1.4 1.4 0 0 0-.28-.62q-.45-.53-1.1-.77a6 6 0 0 0-1.49-.33V.97h9.54v.32q-.67.1-1.44.35t-1.18 1q-.3.55-.3 1.37-.02.83-.06 1.56l-.01 1.57-.02 1.57v10.63q0 .93.03 1.78.04.85.3 1.21.38.54 1.2.82.84.29 1.5.35v.32zM984.72 20.29q-.63 1.2-1.72 2.07-1.11.86-2.63 1.26-1.53.4-3.35.41a17 17 0 0 1-2.68-.19q-1.13-.19-1.85-.46a7 7 0 0 1-1.1-.49q-.37-.22-.47-.22t-.41.38q-.32.37-.57.73h-.29l-.1-6.31h.32q.3.86.74 1.66t.98 1.52q.51.72 1.11 1.25.6.54 1.13.83.56.27 1.44.56.9.3 1.72.3 2.37 0 3.83-1.3a4.4 4.4 0 0 0 1.47-3.46q0-.9-.3-1.56a4 4 0 0 0-.77-1.16 5 5 0 0 0-1.17-.84q-.66-.34-1.43-.63a70 70 0 0 0-3.43-1.19q-.53-.17-1.26-.46a7 7 0 0 1-2.93-2.17q-.58-.75-.93-1.65a6.43 6.43 0 0 1 .28-4.87q.63-1.25 1.69-2.07a7 7 0 0 1 2.45-1.22q1.38-.4 2.92-.4 1.43 0 2.45.25a9 9 0 0 1 2.67 1.05q.33.24.36.24.1 0 .4-.38.3-.39.55-.77h.35v5.87h-.35q-.38-1.05-1-2.08-.6-1.02-1.4-1.84a7 7 0 0 0-1.82-1.32 5 5 0 0 0-2.26-.51q-.99 0-1.87.29t-1.53.85q-.66.58-1.02 1.42a5 5 0 0 0-.36 1.92q0 1.67 1.01 2.7a7 7 0 0 0 2.64 1.61q.63.27 1.2.45.55.19 1.1.36l1.1.36 1.15.41a7.4 7.4 0 0 1 3.36 2.3q1.2 1.51 1.19 3.77a6 6 0 0 1-.62 2.73M1006.73 9.7q-.39.95-1 1.67-.62.73-1.46 1.25a9 9 0 0 1-3.59 1.32 25 25 0 0 1-4.09.32h-1.72v2.98q0 .54.02 1l.01 1 .07 1.74q.03.73.35 1.21.25.41.99.82.73.41 2.04.48v.32h-10.2v-.32a9 9 0 0 0 1.53-.38 2.5 2.5 0 0 0 1.15-.76q.16-.2.25-.57.1-.38.14-.86a32 32 0 0 0 .12-2.05q0-.45.02-1.21l.03-1.67.02-1.85V6.1q0-.57-.02-1.17 0-.59-.07-1.1a6 6 0 0 0-.15-.96q-.12-.44-.31-.62a2.4 2.4 0 0 0-1.22-.68q-.75-.17-1.62-.3V.95h.77l1.43-.01 1.76-.02 1.9-.01 1.77-.02h1.44q2.1 0 3.73.2a9 9 0 0 1 3.06 1 6.6 6.6 0 0 1 2.33 2.16q.92 1.4.93 3.3 0 1.17-.39 2.12zm-4-5.56a6 6 0 0 0-4.1-2.63 13 13 0 0 0-2.83-.08l-.58.08-.08.34q-.05.15-.09.36l-.06.62q-.03.4-.07 1.13l-.05 2.7-.02 3.1v4.07q1.31 0 2.46-.08a8 8 0 0 0 2.13-.43 6 6 0 0 0 3.13-2.3 6.3 6.3 0 0 0 1.08-3.6q0-1.84-.94-3.27zM1028.58 23.81h-19.52v-.32a6 6 0 0 0 1.48-.41q.69-.28 1.14-.8.16-.17.25-.55a7 7 0 0 0 .28-1.84q.04-.53.04-1.03l.01-1.21.04-1.66.01-1.86V6.1l-.01-1.18q-.02-.6-.07-1.14a5 5 0 0 0-.16-.97q-.1-.44-.3-.62a2 2 0 0 0-1.02-.65q-.54-.14-1.41-.27V.95h17.61l2.17 5.23-.33.16q-2.58-3.21-4.84-4.32a8 8 0 0 0-2.01-.44 29 29 0 0 0-4.96-.14 10 10 0 0 0-1.04.1q-.07.51-.1 2.1-.05 1.6-.05 3.68v2.04l.01 1.34.02.81v.35h.64q.48 0 1.1-.04l1.24-.08q.62-.05 1.03-.14a6 6 0 0 0 1.6-.6q.63-.38 1.03-.92t.64-1.25q.23-.72.43-1.6h.38v10h-.38q-.26-1.02-.79-2.1a6 6 0 0 0-1.1-1.62q-.51-.45-1.22-.73a6 6 0 0 0-1.68-.35l-.8-.05-.63-.01h-1.47q-.06.45-.06 1.3v3.8l.01.98.02.78q.04 1.01.11 1.92t.36 1.35 1.37.63q1.09.18 2.36.19.55 0 1.39-.04.84-.03 1.77-.15a6.7 6.7 0 0 0 3.55-1.52 10 10 0 0 0 1.55-1.64q.74-.96 1.54-2.33l.35.1-1.6 6.06zM1049.3 23.81l-.41-.43-.29-.33a6 6 0 0 1-.4-.55q-.23-.36-.75-1.1-.6-.87-1.07-1.6-.45-.7-.94-1.41a29 29 0 0 0-2.35-3.02q-.64-.73-1.39-1.37a3.5 3.5 0 0 0-1.58-.79 5 5 0 0 0-.93-.12q-.29 0-.74-.03v3.58q0 1.53.04 2.57l.06 1.75q.04.72.35 1.2.26.43.99.84.73.45 2.05.5v.32h-10.21v-.32a9 9 0 0 0 1.53-.38q.73-.25 1.15-.77.16-.19.26-.56.09-.39.14-.86l.08-1.01.03-1.05q0-.45.02-1.2l.05-3.53V6.11q0-.56-.02-1.16t-.06-1.1a8 8 0 0 0-.16-.96q-.11-.44-.31-.62a2.4 2.4 0 0 0-1.06-.68q-.6-.18-1.46-.3V.95h1.31l2.45-.01 2.75-.02h2.23q2.13 0 3.8.12a7.5 7.5 0 0 1 3.02.86 6 6 0 0 1 2.27 1.98q.86 1.26.86 3.16 0 1.18-.43 2.1a6 6 0 0 1-1.15 1.66 7 7 0 0 1-1.67 1.22q-.96.5-2.01.85v.1q.54.3 1.05.83.51.54.99 1.2.83 1.22 1.81 2.6.96 1.4 1.73 2.48a10 10 0 0 0 2.3 2.41q1.11.77 2.62.99v.32zm-3.15-19.77a5.4 5.4 0 0 0-2.33-1.97 7 7 0 0 0-1.61-.5 12.71 12.71 0 0 0-2.85-.12q-.42.02-.64.06l-.07.33q-.03.15-.05.37l-.03.61-.05 1.13-.05 2.5-.02 2.7v3.5q1.31 0 2.44-.12t2.19-.46a5.3 5.3 0 0 0 2.95-2.07q.46-.69.69-1.48.22-.78.22-1.65 0-1.58-.8-2.82z"/><path fill="#454545" d="M1079.81 1.88q-.72.45-1.1 1.37-.23.48-.29 1.76l-.23 5.97q-.05 1.85-.05 3.98v2.03q0 1.11.02 2.27l.01 2.3v2.07q0 .13-.08.2-.08.09-.24.09-.25 0-.57-.32l-4.95-5.71-4.26-4.97-3.97-4.62q-1.94-2.25-4.11-4.66v13.38q0 1.62.09 2.92.07 1.3.39 1.94.36.72 1.1 1.1.75.36 2.06.52v.32h-7.84v-.32q.76-.1 1.53-.4.76-.3 1.21-1 .45-.67.57-1.96.13-1.3.19-3.1.07-1.38.1-3.23.04-1.85.03-3.98V5.97q0-.63-.03-1.56a4 4 0 0 0-.45-1.5 3 3 0 0 0-1.86-1.4q-.55-.15-1.06-.21V.98h6.47l15.12 17.57V7.77q0-1.28-.03-2.43a6 6 0 0 0-.29-1.83 3 3 0 0 0-1.14-1.44 6 6 0 0 0-2.34-.78V.97h7.91v.32q-1.19.15-1.89.6zM1096.79 23.81v-.32l.46-.06q.36-.07.77-.23.4-.15.7-.44t.31-.73q0-.29-.17-.94t-.5-1.59l-.74-2.08q-.4-1.15-.89-2.38h-8.48l-.93 2.3-.89 2.21a8 8 0 0 0-.67 2.41q0 .4.25.68.26.27.66.45t.86.25l.87.14v.32h-6.79v-.34a3.7 3.7 0 0 0 2.11-.92q.23-.22.74-1.05.5-.82 1.24-2.44l1.5-3.4 1.7-3.92q.89-2.02 1.74-4.06l1.62-3.83-.31-.7a5 5 0 0 0 1.84-1.33q.36-.38.59-.73l.37-.57h.25l1.89 5 1.7 4.55 1.58 4.23 2.18 5.69.69 1.47a4 4 0 0 0 .88 1.1 3.5 3.5 0 0 0 2.18.87v.38h-9.31zm-4.18-19.23-.56 1.3-.91 2.16-1.2 2.87-1.42 3.47h7.94l-1.1-2.85-1.09-2.75-.95-2.41z"/><path fill="#454545" d="m1115.29 33.78-10.29.03v-.52a55 55 0 0 0 5.27-3.97c2.05-1.8 2.46-2.9 2.46-4 0-1.68-1.24-2.89-2.97-2.88-1.66 0-2.76 1.02-3.4 1.62l-.41-.34c.84-.96 2.34-2.64 4.9-2.65 2.21 0 3.81 1.43 3.82 3.16 0 2.58-1.96 4.18-7.01 7.8l5.93-.01c.81 0 1.22 0 2.23-2.61h.49zM1127.46 33.74l-10.28.04v-.52a59 59 0 0 0 5.27-3.98c2.05-1.8 2.45-2.9 2.45-4 0-1.67-1.23-2.88-2.97-2.88-1.66 0-2.75 1.03-3.39 1.63l-.41-.35c.83-.95 2.34-2.64 4.9-2.65 2.21 0 3.81 1.43 3.82 3.17 0 2.57-1.96 4.17-7.01 7.8l5.93-.02c.81 0 1.22 0 2.22-2.6h.5zM1129.24 27.3c0-2.5 1.64-6.28 5.91-6.3 3.2 0 5.88 2.38 5.88 6.54.01 3.5-2.15 6.45-5.9 6.46-2.82 0-5.88-1.92-5.89-6.72zm10.06.19c0-1.08-.16-2.6-.94-3.78a4 4 0 0 0-3.29-1.64c-2.64.01-4.09 2.36-4.08 5.27.01 3.9 1.82 5.6 4.11 5.6 2.56 0 4.21-1.98 4.2-5.45"/><path fill="#fc0" d="M6.2 38.47a5.45 5.45 0 1 1 0-10.9 5.45 5.45 0 1 1 0 10.9"/><path fill="#454545" d="M6.2 39.2c3.4 0 6.2-2.79 6.2-6.18a6.21 6.21 0 0 0-12.4 0c0 3.4 2.8 6.17 6.2 6.17s-3.4 0 0 0m0-10.9a4.74 4.74 0 1 1 .01 9.46 4.74 4.74 0 0 1-.01-9.47c2.62 0-2.62 0 0 0"/><path fill="#454545" d="M6.2 39.2v1c3.95 0 7.2-3.23 7.2-7.18h-2a5.2 5.2 0 0 1-5.2 5.17zm6.2-6.18h1a7.2 7.2 0 0 0-7.2-7.18v2c2.85 0 5.2 2.34 5.2 5.18zm-6.2-6.18v-1A7.2 7.2 0 0 0-1 33.02h2a5.2 5.2 0 0 1 5.2-5.18zM0 33.02h-1a7.2 7.2 0 0 0 7.2 7.17v-2A5.2 5.2 0 0 1 1 33.02zm6.2 6.17v-1h-.98v2h1.96v-2H6.2zv1h.98v-2H5.21v2h.98zm0-10.9v1a3.74 3.74 0 0 1 3.74 3.73h2a5.74 5.74 0 0 0-5.74-5.73zm4.74 4.73h-1a3.74 3.74 0 0 1-3.74 3.72v2a5.74 5.74 0 0 0 5.74-5.72zM6.2 37.74v-1a3.74 3.74 0 0 1-3.75-3.72h-2a5.74 5.74 0 0 0 5.75 5.72zm-4.75-4.72h1a3.74 3.74 0 0 1 3.75-3.73v-2a5.74 5.74 0 0 0-5.75 5.73zm4.75-4.73v-1h-.75v2h1.5v-2H6.2zv1h.75v-2h-1.5v2h.75z"/></svg>