<svg width="20" height="26" viewBox="0 0 20 26" fill="none" xmlns="http://www.w3.org/2000/svg">
<path d="M9.56609 12.4369C11.1429 12.4369 12.4212 11.1586 12.4212 9.58171C12.4212 8.00486 11.1429 6.72656 9.56609 6.72656C7.98923 6.72656 6.71094 8.00486 6.71094 9.58171C6.71094 11.1586 7.98923 12.4369 9.56609 12.4369Z" stroke="#FFCC00" stroke-width="2" stroke-linecap="round" stroke-linejoin="round"/>
<path d="M18.1309 9.5822C18.1335 8.25274 17.8266 6.94092 17.2345 5.75059C16.6423 4.56027 15.7813 3.52412 14.7194 2.72416C13.6576 1.9242 12.4241 1.38239 11.1166 1.14163C9.80915 0.900866 8.46357 0.967761 7.18642 1.33701C5.90927 1.70627 4.7356 2.36773 3.75832 3.26907C2.78105 4.1704 2.02702 5.28684 1.55588 6.53002C1.08475 7.77321 0.909467 9.109 1.04391 10.4316C1.17836 11.7543 1.61883 13.0275 2.33047 14.1504L3.42686 15.8635L9.56543 25L15.704 15.8635L16.8004 14.1504C17.6693 12.7852 18.1308 11.2005 18.1309 9.5822V9.5822Z" stroke="#FFCC00" stroke-width="2" stroke-linecap="round" stroke-linejoin="round"/>
</svg>
