<?xml version="1.0" encoding="UTF-8"?>
<svg id="Livello_1" data-name="Livello 1" xmlns="http://www.w3.org/2000/svg" viewBox="0 0 1080 1080">
  <defs>
    <style>
      .cls-1 {
        fill: #fc0;
      }

      .cls-2 {
        fill: #4a4a4a;
      }
    </style>
  </defs>
  <path class="cls-2" d="M1067.98,540c0,292.89-236.39,530.33-527.98,530.33S12.02,832.89,12.02,540,248.4,9.67,540,9.67s527.98,237.44,527.98,530.33"/>
  <path class="cls-1" d="M614.41,210.67c-12.66-19.4-29.29-34.05-49.89-43.97-10.31-4.74-21.25-7.97-32.83-9.7-11.59-1.71-23.61-2.59-36.05-2.59-9.02,0-16,.32-20.93.97-4.94.64-8.91,1.19-11.91,1.61-.43,2.59-.97,4.85-1.61,6.79-.64,1.94-1.19,4.42-1.61,7.43-.44,3.02-.87,7.23-1.29,12.61-.43,5.39-.87,13.04-1.29,22.96-.43,15.09-.76,33.41-.97,54.96-.22,21.56-.32,42.67-.32,63.37v82.76c17.59,0,34.12-.54,49.57-1.62,15.45-1.07,29.83-3.98,43.13-8.73,27.46-9.48,48.49-25.11,63.09-46.88,14.59-21.76,21.89-46.24,21.89-73.4,0-24.99-6.34-47.2-19-66.6M695.21,323.84c-5.15,12.93-11.91,24.36-20.28,34.27-8.36,9.92-18.13,18.43-29.29,25.54-11.16,7.11-22.53,12.83-34.12,17.13-12.02,4.32-24.89,7.55-38.63,9.7-13.74,2.16-27.58,3.78-41.52,4.85-13.95,1.08-27.58,1.62-40.88,1.62h-34.76v60.78c0,7.34.1,14.13.32,20.37.21,6.26.32,13.04.32,20.37.43,13.81.86,25.65,1.29,35.57.43,9.93,2.79,18.11,7.08,24.57,3.43,5.61,10.08,11.22,19.96,16.81,9.87,5.61,23.6,8.84,41.2,9.7v6.46h-206.01v-6.46c10.72-1.72,21.02-4.31,30.9-7.76,9.87-3.44,17.59-8.62,23.18-15.52,2.14-2.59,3.86-6.47,5.15-11.64,1.28-5.17,2.25-10.99,2.9-17.46.64-6.46,1.18-13.36,1.61-20.69.42-7.32.64-14.44.64-21.34,0-6.03.1-14.23.32-24.57.21-10.35.42-21.66.64-33.95.21-12.29.32-24.9.32-37.83v-163.59c0-7.76-.11-15.62-.32-23.6-.22-7.97-.64-15.52-1.29-22.64-.65-7.11-1.72-13.58-3.22-19.4-1.51-5.82-3.54-10.02-6.12-12.61-6.43-6.89-14.71-11.53-24.78-13.91-10.09-2.36-20.92-4.41-32.51-6.14v-6.47h15.45c8.15,0,17.71-.1,28.65-.32,10.95-.21,22.86-.32,35.73-.32s25.64-.1,38.31-.32c12.65-.22,24.56-.32,35.73-.32h28.97c28.33,0,53.43,1.4,75.32,4.2,21.89,2.81,42.49,9.6,61.8,20.37,18.88,10.35,34.55,25.01,47,43.97,12.44,18.97,18.67,41.39,18.67,67.25,0,15.96-2.58,30.39-7.72,43.32"/>
  <path class="cls-1" d="M592.5,873.24H179.2v-6.47c10.72-1.72,21.34-4.53,31.86-8.41,10.51-3.89,18.77-9.27,24.79-16.17,2.14-2.59,3.96-6.35,5.47-11.32,1.5-4.95,2.68-10.67,3.54-17.14.86-6.46,1.61-13.25,2.25-20.37.65-7.11.97-14.11.97-21.01,0-6.03.1-14.22.32-24.58.22-10.34.42-21.66.65-33.94.21-12.29.32-24.9.32-37.84v-185.58c0-7.76-.32-14.98-.97-21.66-.64-6.68-1.61-12.61-2.9-17.79-1.29-5.17-3.22-9.26-5.79-12.28-6.02-7.32-14.06-12.93-24.14-16.81-10.09-3.88-20.71-6.47-31.87-7.76v-6.47h205.36v6.47c-5.58.87-12.23,2.16-19.96,3.88-7.73,1.73-15.03,4.53-21.89,8.4-6.87,3.88-12.77,9.38-17.7,16.49-4.94,7.11-7.62,16.48-8.05,28.13-.43,15.1-.75,28.89-.96,41.38-.22,12.51-.44,24.8-.65,36.87-.22,12.07-.32,24.57-.32,37.5v117.68c0,11.22.1,22.75.32,34.59.21,11.86.32,25.12.32,39.77.43,13.81.97,26.94,1.61,39.45.65,12.5,2.9,21.76,6.76,27.8,1.71,2.17,5.15,4.32,10.3,6.48,5.15,2.16,11.37,3.99,18.67,5.49,7.3,1.52,15.23,2.81,23.82,3.89,8.58,1.07,17.16,1.61,25.75,1.61,3.43,0,8.9-.1,16.41-.32,7.51-.21,15.77-.64,24.78-1.29,9.02-.64,18.24-1.62,27.69-2.91,9.44-1.3,17.8-3.01,25.1-5.18,17.16-4.74,31.44-11,42.81-18.75,11.37-7.76,21.14-16.7,29.29-26.84,8.15-10.12,15.02-21.11,20.6-32.97,5.57-11.85,10.94-24.25,16.1-37.18l6.43,1.94-23.81,133.2Z"/>
  <path class="cls-1" d="M665.87,611.14l-140.45.46-2.31-5.45c22.17-15.2,48.6-34.16,74.32-56.57,28.09-24.8,33.6-39.96,33.55-55.11-.08-23.11-16.8-39.8-40.6-39.72-22.62.07-37.65,14.07-46.35,22.47l-5.57-4.76c11.46-13.18,32.02-36.36,66.94-36.48,30.15-.11,52.04,19.75,52.11,43.66.12,35.47-26.79,57.49-95.68,107.52l80.94-.27c11.11-.04,16.67-.05,30.44-35.96l6.75-.03-14.09,60.23Z"/>
  <path class="cls-1" d="M832.7,610.66l-140.45.46-.02-7.18c22.17-15.2,46.31-32.43,72.03-54.83,28.09-24.8,33.59-39.96,33.55-55.11-.08-23.11-16.8-39.79-40.6-39.71-22.62.06-37.65,14.06-46.35,22.46l-5.56-4.76c11.46-13.18,32.01-36.36,66.93-36.48,30.16-.11,52.04,19.75,52.12,43.66.12,35.47-26.79,57.49-95.67,107.52l80.94-.27c11.12-.04,16.66-.05,30.44-35.96l6.75-.02-14.09,60.23Z"/>
  <path class="cls-1" d="M994.33,524.44c-.05-14.75-2.1-35.86-12.87-52.16-7.58-11.13-23.09-22.64-44.91-22.57-36.1.12-55.85,32.46-55.71,72.72.17,53.8,24.85,77.24,56.2,77.13,34.92-.11,57.45-27.28,57.29-75.11M857.02,521.7c-.1-34.27,22.34-86.55,80.67-86.74,43.65-.15,80.26,32.82,80.44,90.2.16,48.22-29.47,88.97-80.66,89.14-38.49.12-80.23-26.45-80.45-92.6"/>
</svg>