<svg width="17" height="18" viewBox="0 0 17 18" fill="none" xmlns="http://www.w3.org/2000/svg">
<path d="M1 16.9998C1.39104 15.4316 2.2868 14.0353 3.54933 13.0262C4.81185 12.017 6.37112 11.4508 7.98701 11.4149C9.60291 11.379 11.1858 11.8753 12.4919 12.8273C13.7981 13.7794 14.755 15.1344 15.2154 16.6838" stroke="#FFCC00" stroke-width="2" stroke-linecap="round" stroke-linejoin="round"/>
<path d="M8.46326 8.32715H7.75018C6.85671 8.32715 5.99984 7.97222 5.36806 7.34045C4.73628 6.70867 4.38135 5.8518 4.38135 4.95833L4.38135 4.64997C4.38135 3.68188 4.76593 2.75342 5.45047 2.06887C6.13502 1.38433 7.06346 0.999762 8.03156 0.999762C8.5313 0.999255 9.02623 1.09732 9.48803 1.28833C9.94983 1.47934 10.3694 1.75954 10.7228 2.11291C11.0762 2.46628 11.3564 2.88588 11.5474 3.34767C11.7384 3.80947 11.8364 4.3044 11.8359 4.80414V4.95833C11.8359 5.8518 11.481 6.70867 10.8492 7.34045C10.2175 7.97222 9.36058 8.32715 8.46711 8.32715H8.46326Z" stroke="#FFCC00" stroke-width="2" stroke-linecap="round" stroke-linejoin="round"/>
</svg>
